/* XPM */
static char *result[] = {
/* columns rows colors chars-per-pixel */
"32 32 78 1 ",
"  c black",
". c #010101",
"X c #020202",
"o c gray1",
"O c #040404",
"+ c gray2",
"@ c #060606",
"# c #070707",
"$ c gray3",
"% c #090909",
"& c gray4",
"* c #0B0B0B",
"= c #0C0C0C",
"- c gray5",
"; c #0E0E0E",
": c gray6",
"> c #101010",
", c #111111",
"< c gray7",
"1 c #131313",
"2 c gray8",
"3 c #151515",
"4 c #161616",
"5 c gray9",
"6 c #181818",
"7 c #191919",
"8 c gray10",
"9 c #1B1B1B",
"0 c gray11",
"q c #1D1D1D",
"w c #1E1E1E",
"e c gray12",
"r c #202020",
"t c gray13",
"y c #222222",
"u c #232323",
"i c gray14",
"p c #252525",
"a c gray15",
"s c #272727",
"d c #282828",
"f c gray16",
"g c #2A2A2A",
"h c gray17",
"j c gray20",
"k c #353535",
"l c gray21",
"z c #393939",
"x c gray23",
"c c gray24",
"v c #3E3E3E",
"b c #3F3F3F",
"n c gray26",
"m c #434343",
"M c #464646",
"N c gray28",
"B c #484848",
"V c #494949",
"C c #4B4B4B",
"Z c gray31",
"A c #505050",
"S c #515151",
"D c gray32",
"F c #535353",
"G c gray36",
"H c #626262",
"J c #656565",
"K c #6F6F6F",
"L c gray44",
"P c #717171",
"I c #777777",
"U c gray47",
"Y c gray48",
"T c #7B7B7B",
"R c #7C7C7C",
"E c gray49",
"W c #868686",
"Q c None",
/* pixels */
"QQQQQQQQQQQQQQQQQQQQQQQQQQQQQQQQ",
"QQQQQQQQQQQQQQQxxQQQQQQQQQQQQQQQ",
"QQQQQQQQQQQQQQQ  QQQQQQQQQQQQQQQ",
"QQQQQQQQQQQQQQM  MQQQQQQQQQQQQQQ",
"QQQQQQQQQQQQQQO==OQQQQQQQQQQQQQQ",
"QQQQQQQQQQQQQB+>>+BQQQQQQQQQQQQQ",
"QQQQQQQQQQQQQ%<22<%QQQQQQQQQQQQQ",
"QQQQQQQQQQQQZ&4554*CQQQQQQQQQQQQ",
"QQQQQQQQQQQQ:678876;QQQQQQQQQQQQ",
"QQQQQQQQQQQS:900q09:ZQQQQQQQQQQQ",
"QQQQQQQQQQQ<0qweeew01QQQQQQQQQQQ",
"QQQQQQQQQQD<eetyyyte<DQQQQQQQQQQ",
"QQQQQQQQQQ2e3TH0pputw2QQQQQQQQQQ",
"QQQQQQQQQF1wdQQwdsaut2SQQQQQQQQQ",
"QQQQQQQQQ3w2YQQAugspye1QQQQQQQQQ",
"QQQQQQQQF,qsQQQQyhdaur<ZQQQQQQQQ",
"QQQQQQQQ,0<YQQQQMpfaur0>QQQQQQQQ",
"QQQQQQQA;7iQQQQQQqdpyeq:CQQQQQQQ",
"QQQQQQQ-6-RQQQQQQltutw06=QQQQQQQ",
"QQQQQQC%2uQQQQQQQW4yeq86&MQQQQQQ",
"QQQQQQ$1#RQQQQQQQQs0q9741#QQQQQQ",
"QQQQQCo;wQQQQQQQQQP>9753<OMQQQQQ",
"QQQQQo-.YQQQQQQQQQQ75531>-XQQQQQ",
"QQQQM $7QQQQQQQQQQQG&31,;= nQQQQ",
"QQQQ # UQQQQQQQQQQQQ=,>;=&# QQQQ",
"QQQm .5QQQQQQQQQQQQQN+;=&$@ vQQQ",
"QQQ   EQQQQQQQQQQQQQQ.*&$@O  QQQ",
"QQM  4QQQQQQQQQQQQQQQv #+o.  cQQ",
"QQ   QQQQJKKLLLLLLLLIz Oo.    QQ",
"QV  4QQQg            XoX      bQ",
"Q.  QQQQ  .XoOOOOOOoX.         Q",
"k  1QQQv     ......            j"
};
