/* XPM */
static char *result[] = {
/* columns rows colors chars-per-pixel */
"64 64 89 1 ",
"  c black",
". c #010101",
"X c #020202",
"o c gray1",
"O c #040404",
"+ c gray2",
"@ c #060606",
"# c #070707",
"$ c gray3",
"% c #090909",
"& c gray4",
"* c #0B0B0B",
"= c #0C0C0C",
"- c gray5",
"; c #0E0E0E",
": c gray6",
"> c #101010",
", c #111111",
"< c gray7",
"1 c #131313",
"2 c gray8",
"3 c #151515",
"4 c #161616",
"5 c gray9",
"6 c #181818",
"7 c #191919",
"8 c gray10",
"9 c #1B1B1B",
"0 c gray11",
"q c #1D1D1D",
"w c #1E1E1E",
"e c gray12",
"r c #202020",
"t c gray13",
"y c #222222",
"u c #232323",
"i c gray14",
"p c #252525",
"a c gray15",
"s c #272727",
"d c #282828",
"f c gray16",
"g c #2A2A2A",
"h c gray17",
"j c #2C2C2C",
"k c #2D2D2D",
"l c gray18",
"z c #2F2F2F",
"x c gray19",
"c c #313131",
"v c #323232",
"b c gray20",
"n c #343434",
"m c #353535",
"M c gray21",
"N c #373737",
"B c gray22",
"V c #393939",
"C c #3A3A3A",
"Z c gray23",
"A c #3C3C3C",
"S c gray24",
"D c #3E3E3E",
"F c #3F3F3F",
"G c gray25",
"H c #414141",
"J c gray26",
"K c #434343",
"L c #444444",
"P c gray27",
"I c #464646",
"U c gray28",
"Y c #484848",
"T c #494949",
"R c #4B4B4B",
"E c #4C4C4C",
"W c gray30",
"Q c #4E4E4E",
"! c #505050",
"~ c gray32",
"^ c gray33",
"/ c #585858",
"( c #626262",
") c DimGray",
"_ c gray42",
"` c gray48",
"' c #7E7E7E",
"] c gray54",
"[ c None",
/* pixels */
"[[[[[[[[[[[[[[[[[[[[[[[[[[[[[[[[[[[[[[[[[[[[[[[[[[[[[[[[[[[[[[[[",
"[[[[[[[[[[[[[[[[[[[[[[[[[[[[[[[BB[[[[[[[[[[[[[[[[[[[[[[[[[[[[[[[",
"[[[[[[[[[[[[[[[[[[[[[[[[[[[[[[[  [[[[[[[[[[[[[[[[[[[[[[[[[[[[[[[",
"[[[[[[[[[[[[[[[[[[[[[[[[[[[[[[H  H[[[[[[[[[[[[[[[[[[[[[[[[[[[[[[",
"[[[[[[[[[[[[[[[[[[[[[[[[[[[[[[ @@ [[[[[[[[[[[[[[[[[[[[[[[[[[[[[[",
"[[[[[[[[[[[[[[[[[[[[[[[[[[[[[H $$ H[[[[[[[[[[[[[[[[[[[[[[[[[[[[[",
"[[[[[[[[[[[[[[[[[[[[[[[[[[[[[ %&&% [[[[[[[[[[[[[[[[[[[[[[[[[[[[[",
"[[[[[[[[[[[[[[[[[[[[[[[[[[[[H **** H[[[[[[[[[[[[[[[[[[[[[[[[[[[[",
"[[[[[[[[[[[[[[[[[[[[[[[[[[[[X=----=X[[[[[[[[[[[[[[[[[[[[[[[[[[[[",
"[[[[[[[[[[[[[[[[[[[[[[[[[[[Jo;;;;;;oJ[[[[[[[[[[[[[[[[[[[[[[[[[[[",
"[[[[[[[[[[[[[[[[[[[[[[[[[[[O;>>>>>>;O[[[[[[[[[[[[[[[[[[[[[[[[[[[",
"[[[[[[[[[[[[[[[[[[[[[[[[[[J@,,,,,,,,@J[[[[[[[[[[[[[[[[[[[[[[[[[[",
"[[[[[[[[[[[[[[[[[[[[[[[[[[#<<<11111<<#[[[[[[[[[[[[[[[[[[[[[[[[[[",
"[[[[[[[[[[[[[[[[[[[[[[[[[T$1222222222%K[[[[[[[[[[[[[[[[[[[[[[[[[",
"[[[[[[[[[[[[[[[[[[[[[[[[[*233344444332%[[[[[[[[[[[[[[[[[[[[[[[[[",
"[[[[[[[[[[[[[[[[[[[[[[[[W&445555555544=L[[[[[[[[[[[[[[[[[[[[[[[[",
"[[[[[[[[[[[[[[[[[[[[[[[[-45666777776655*[[[[[[[[[[[[[[[[[[[[[[[[",
"[[[[[[[[[[[[[[[[[[[[[[[W=67788888888776;L[[[[[[[[[[[[[[[[[[[[[[[",
"[[[[[[[[[[[[[[[[[[[[[[[:6889990000999887-[[[[[[[[[[[[[[[[[[[[[[[",
"[[[[[[[[[[[[[[[[[[[[[[W:8900qqqqqqqq0098:Q[[[[[[[[[[[[[[[[[[[[[[",
"[[[[[[[[[[[[[[[[[[[[[[>890qqwweeeewwwq008>[[[[[[[[[[[[[[[[[[[[[[",
"[[[[[[[[[[[[[[[[[[[[[W>0qwweerrrrrreewwq0>W[[[[[[[[[[[[[[[[[[[[[",
"[[[[[[[[[[[[[[[[[[[[[,9qwerwrttyyyttrrewq9,[[[[[[[[[[[[[[[[[[[[[",
"[[[[[[[[[[[[[[[[[[[[W,qwerepuuuuuuuyytrewq<W[[[[[[[[[[[[[[[[[[[[",
"[[[[[[[[[[[[[[[[[[[[,0wert4[(8ippiiiuytrew0<[[[[[[[[[[[[[[[[[[[[",
"[[[[[[[[[[[[[[[[[[[E<wert0B[[9aaaappiuytrew<E[[[[[[[[[[[[[[[[[[[",
"[[[[[[[[[[[[[[[[[[[,0wrty3[[[Reddssapiuytrwq,[[[[[[[[[[[[[[[[[[[",
"[[[[[[[[[[[[[[[[[[^,weryqV[[[[0fffdsapiuyrew<R[[[[[[[[[[[[[[[[[[",
"[[[[[[[[[[[[[[[[[[10wety4[[[[[Jiggffsapiytrw0,[[[[[[[[[[[[[[[[[[",
"[[[[[[[[[[[[[[[[[~>qwrtqC[[[[[[wjhhfdsaiutreq<T[[[[[[[[[[[[[[[[[",
"[[[[[[[[[[[[[[[[[<9qery3[[[[[[[Zfkhgfsapuyreq0>[[[[[[[[[[[[[[[[[",
"[[[[[[[[[[[[[[[[!:0qer0C[[[[[[[]tljhfdapuyrew0,U[[[[[[[[[[[[[[[[",
"[[[[[[[[[[[[[[[[>80qer2[[[[[[[[[nhjhfdapuyrew08;[[[[[[[[[[[[[[[[",
"[[[[[[[[[[[[[[[Q;80qe8C[[[[[[[[[`rjgfsapuyreq09:P[[[[[[[[[[[[[[[",
"[[[[[[[[[[[[[[[;689qe<[[[[[[[[[[[gfgdsaiutreq086=[[[[[[[[[[[[[[[",
"[[[[[[[[[[[[[[R=689q5B[[[[[[[[[[[)wfdapiytrwq987-J[[[[[[[[[[[[[[",
"[[[[[[[[[[[[[[*46790,[[[[[[[[[[[[[ysspiuyrew09864&[[[[[[[[[[[[[[",
"[[[[[[[[[[[[[Y&45782F[[[[[[[[[[[[[/0aiuytreq08764*G[[[[[[[[[[[[[",
"[[[[[[[[[[[[[%14568;[[[[[[[[[[[[[[[9iuytrewq986542#[[[[[[[[[[[[[",
"[[[[[[[[[[[[P#2346,S[[[[[[[[[[[[[[[Y9ytrewq0976532%A[[[[[[[[[[[[",
"[[[[[[[[[[[[#,1245*[[[[[[[[[[[[[[[[[2trewq09865431<O[[[[[[[[[[[[",
"[[[[[[[[[[[EO,<23;A[[[[[[[[[[[[[[[[[B8ewq098764321,+K[[[[[[[[[[[",
"[[[[[[[[[[[+;><12$[[[[[[[[[[[[[[[[[[[>wq098765321<>:o[[[[[[[[[[[",
"[[[[[[[[[[T.;:,<&C[[[[[[[[[[[[[[[[[[[h6098765431<,>:XF[[[[[[[[[[",
"[[[[[[[[[[o*-:>,+[[[[[[[[[[[[[[[[[[[['-987654321,>:;= [[[[[[[[[[",
"[[[[[[[[[I *-;:#V[[[[[[[[[[[[[[[[[[[[[w46554321<>:;-= A[[[[[[[[[",
"[[[[[[[[[ $&=-;X[[[[[[[[[[[[[[[[[[[[[[_&543321,>:;-=*% [[[[[[[[[",
"[[[[[[[[K $&*=ON[[[[[[[[[[[[[[[[[[[[[[[22321<,>:;-=*&% C[[[[[[[[",
"[[[[[[[[ +#%&* [[[[[[[[[[[[[[[[[[[[[[[[/$21<,>:;-=*&%$@ [[[[[[[[",
"[[[[[[[H +@$% M[[[[[[[[[[[[[[[[[[[[[[[[[*<<,>:;-=*&%$#@ N[[[[[[[",
"[[[[[[[ XO+## [[[[[[[[[[[[[[[[[[[[[[[[[[I#>>:;-=*&%$#@OX [[[[[[[",
"[[[[[[F XoO@ F[[[[[[[[[[[[[[[[[[[[[[[[[[[o:;--=*&%$#@+oX m[[[[[[",
"[[[[[[  .XoO [[[[[[[[[[[[[[[[[[[[[[[[[[[[n+-=**&%$#@+OX.  [[[[[[",
"[[[[[G   .X F[[[[[[[[[[[[[[[[[[[[[[[[[[[[[ =*&%%$#@+Oo.   n[[[[[",
"[[[[[       [[[[[[[[[[[[[[[[[[[[[[[[[[[[[[iO&%$#@+Ooo.     [[[[[",
"[[[[I      D[[[[[[[[[[[[[[[[[[[[[[[[[[[[[[[ $##@+OoX.      b[[[[",
"[[[[       [[[[[[[[[[[[[[[[[[[[[[[[[[[[[[[[:O@++OoX.        [[[[",
"[[[P      F[[[[[[: O++@@###$$$$$$$$$$###@+$$++OoXX.         v[[[",
"[[[       [[[[[[[ XXoOO+++@@@@####@@@@+++OO+OooX.            [[[",
"[[L      G[[[[[[5 XooOO++@@@@######@@@@++OOooX..             c[[",
"[[       [[[[[[[   .XXooOOO++++++++++OOOooXX..                [[",
"[U      J[[[[[[i     ..XXooooOOOOOOooooXX..                   b[",
"[.      [[[[[[[         ...XXXXXXXXXX...                       [",
"z      G[[[[[[M               ....                             x"
};
