/* XPM */
static char *result[] = {
/* columns rows colors chars-per-pixel */
"16 16 50 1 ",
"  c black",
". c #010101",
"X c gray1",
"o c gray2",
"O c #060606",
"+ c #070707",
"@ c #090909",
"# c gray4",
"$ c #0C0C0C",
"% c #0E0E0E",
"& c gray6",
"* c #111111",
"= c gray7",
"- c #131313",
"; c gray8",
": c #151515",
"> c #161616",
", c gray9",
"< c #181818",
"1 c gray10",
"2 c #1E1E1E",
"3 c gray12",
"4 c gray13",
"5 c #232323",
"6 c #272727",
"7 c #313131",
"8 c gray21",
"9 c #373737",
"0 c gray22",
"q c #3A3A3A",
"w c #3F3F3F",
"e c gray26",
"r c gray27",
"t c #464646",
"y c gray28",
"u c gray30",
"i c #4E4E4E",
"p c gray31",
"a c gray32",
"s c gray33",
"d c #555555",
"f c #5B5B5B",
"g c #606060",
"h c #626262",
"j c gray39",
"k c gray40",
"l c DimGray",
"z c #6C6C6C",
"x c gray50",
"c c None",
/* pixels */
"cccccccccccccccc",
"cccccccwwccccccc",
"cccccccOOccccccc",
"ccccccp##icccccc",
"cccccc=11*cccccc",
"cccccd*34;dccccc",
"ccccc$zh25,ccccc",
"ccccs:cc56>scccc",
"cccc+lcca34-cccc",
"ccci%cccc<3&uccc",
"ccc kccccq:>@ccc",
"ccyXcccccc@-Xycc",
"cc gcccccc5@@ cc",
"ct cccccccx o rc",
"c jcf0wwwe7..  c",
"8 cc           9"
};
